<svg xmlns="http://www.w3.org/2000/svg" width="300" height="300" viewBox="0 0 300 300" fill="none">
  <circle cx="150" cy="150" r="140" fill="#F9FAFB" stroke="#E5E7EB" stroke-width="2"/>
  <!-- Cat body -->
  <ellipse cx="150" cy="170" rx="80" ry="70" fill="#4B5563"/>
  <!-- Cat head -->
  <circle cx="150" cy="100" r="60" fill="#4B5563"/>
  <!-- Cat ears -->
  <path d="M100 70L110 100L130 80Z" fill="#4B5563"/>
  <path d="M200 70L190 100L170 80Z" fill="#4B5563"/>
  <!-- Cat eyes - happy -->
  <path d="M125 85C125 90 135 90 135 85" stroke="#111827" stroke-width="3" stroke-linecap="round"/>
  <path d="M165 85C165 90 175 90 175 85" stroke="#111827" stroke-width="3" stroke-linecap="round"/>
  <!-- Cat nose -->
  <path d="M150 105L145 115H155Z" fill="#F87171"/>
  <!-- Cat mouth - big smile -->
  <path d="M135 125C135 135 165 135 165 125" stroke="#111827" stroke-width="3" stroke-linecap="round"/>
  <!-- Cat whiskers -->
  <line x1="110" y1="110" x2="80" y2="105" stroke="#111827" stroke-width="2"/>
  <line x1="110" y1="115" x2="80" y2="115" stroke="#111827" stroke-width="2"/>
  <line x1="110" y1="120" x2="80" y2="125" stroke="#111827" stroke-width="2"/>
  <line x1="190" y1="110" x2="220" y2="105" stroke="#111827" stroke-width="2"/>
  <line x1="190" y1="115" x2="220" y2="115" stroke="#111827" stroke-width="2"/>
  <line x1="190" y1="120" x2="220" y2="125" stroke="#111827" stroke-width="2"/>
  <!-- Cat paws - raised in celebration -->
  <circle cx="100" cy="190" r="15" fill="#374151"/>
  <circle cx="200" cy="190" r="15" fill="#374151"/>
  <!-- Party hat -->
  <path d="M150 40L120 80H180Z" fill="#F59E0B"/>
  <circle cx="150" cy="35" r="5" fill="#EF4444"/>
  <!-- Confetti -->
  <rect x="80" y="60" width="5" height="15" rx="2" fill="#EC4899" transform="rotate(45 80 60)"/>
  <rect x="220" y="60" width="5" height="15" rx="2" fill="#8B5CF6" transform="rotate(-45 220 60)"/>
  <rect x="100" y="200" width="5" height="15" rx="2" fill="#10B981" transform="rotate(30 100 200)"/>
  <rect x="200" y="200" width="5" height="15" rx="2" fill="#3B82F6" transform="rotate(-30 200 200)"/>
  <circle cx="90" y="120" r="3" fill="#F59E0B"/>
  <circle cx="210" y="120" r="3" fill="#EC4899"/>
  <circle cx="120" y="220" r="3" fill="#8B5CF6"/>
  <circle cx="180" y="220" r="3" fill="#10B981"/>
</svg>
