<svg xmlns="http://www.w3.org/2000/svg" width="300" height="300" viewBox="0 0 300 300" fill="none">
  <circle cx="150" cy="150" r="140" fill="#F9FAFB" stroke="#E5E7EB" stroke-width="2"/>
  <!-- Cat body -->
  <ellipse cx="150" cy="170" rx="80" ry="70" fill="#4B5563"/>
  <!-- Cat head -->
  <circle cx="150" cy="100" r="60" fill="#4B5563"/>
  <!-- Cat ears -->
  <path d="M100 70L110 100L130 80Z" fill="#4B5563"/>
  <path d="M200 70L190 100L170 80Z" fill="#4B5563"/>
  <!-- Cat eyes -->
  <circle cx="130" cy="90" r="10" fill="white"/>
  <circle cx="170" cy="90" r="10" fill="white"/>
  <circle cx="130" cy="90" r="5" fill="#111827"/>
  <circle cx="170" cy="90" r="5" fill="#111827"/>
  <!-- Cat nose -->
  <path d="M150 105L145 115H155Z" fill="#F87171"/>
  <!-- Cat mouth -->
  <path d="M145 120C145 125 155 125 155 120" stroke="#111827" stroke-width="2" stroke-linecap="round"/>
  <!-- Cat whiskers -->
  <line x1="110" y1="110" x2="80" y2="105" stroke="#111827" stroke-width="2"/>
  <line x1="110" y1="115" x2="80" y2="115" stroke="#111827" stroke-width="2"/>
  <line x1="110" y1="120" x2="80" y2="125" stroke="#111827" stroke-width="2"/>
  <line x1="190" y1="110" x2="220" y2="105" stroke="#111827" stroke-width="2"/>
  <line x1="190" y1="115" x2="220" y2="115" stroke="#111827" stroke-width="2"/>
  <line x1="190" y1="120" x2="220" y2="125" stroke="#111827" stroke-width="2"/>
  <!-- Cat paws -->
  <circle cx="120" cy="230" r="15" fill="#374151"/>
  <circle cx="180" cy="230" r="15" fill="#374151"/>
  <!-- Keyboard -->
  <rect x="110" y="140" width="80" height="30" rx="5" fill="#E5E7EB"/>
  <rect x="115" y="145" width="10" height="10" rx="2" fill="#9CA3AF"/>
  <rect x="130" y="145" width="10" height="10" rx="2" fill="#9CA3AF"/>
  <rect x="145" y="145" width="10" height="10" rx="2" fill="#9CA3AF"/>
  <rect x="160" y="145" width="10" height="10" rx="2" fill="#9CA3AF"/>
  <rect x="175" y="145" width="10" height="10" rx="2" fill="#9CA3AF"/>
</svg>
